<?xml version="1.0" encoding="UTF-8"?>
<svg xmlns="http://www.w3.org/2000/svg" viewBox="0 0 380 380" fill="none" role="img" aria-labelledby="demi-mark-title demi-mark-desc">
  <title id="demi-mark-title">Demi - primary mark</title>
  <desc id="demi-mark-desc">Demi Build - Where research meets open source meets gaming</desc>
  
  <path d="M 190 10 A 180 180 0 0 0 190 370" pathLength="14" stroke="#FFFFFF" stroke-width="5.5" stroke-dasharray="1.4 0.9" stroke-linecap="round" stroke-linejoin="round" opacity="1"></path>
  <path d="M 190 50 A 140 140 0 0 0 190 330" pathLength="22" stroke="#FFFFFF" stroke-width="4" stroke-dasharray="1 1" stroke-linecap="round" stroke-linejoin="round" opacity="1"></path>
  <path d="M 190 90 A 100 100 0 0 0 190 290" pathLength="36" stroke="#FFFFFF" stroke-width="2.75" stroke-dasharray="0.6 0.9" stroke-linecap="round" stroke-linejoin="round" opacity="1"></path>
  
  <path d="M 190 10 A 180 180 0 0 1 190 370" stroke="#A07B3C" stroke-width="5.5" stroke-linecap="round" stroke-linejoin="round"></path>
  <path d="M 190 50 A 140 140 0 0 1 190 330" stroke="#FFFFFF" stroke-width="4" stroke-linecap="round" stroke-linejoin="round"></path>
  <path d="M 190 90 A 100 100 0 0 1 190 290" stroke="#FFFFFF" stroke-width="2.75" stroke-linecap="round" stroke-linejoin="round"></path>
  
  <line x1="190" y1="10" x2="190" y2="370" stroke="#A07B3C" stroke-width="4.5" stroke-linecap="round"></line>
  <circle cx="190" cy="190" r="11" fill="#A07B3C"></circle>
</svg>
